# xmcd
#
# Track frame offsets:
# 150
# 22415
# 40762
# 61686
# 77551
# 99679
# 124972
# 147269
# 171132
# 192915
# 215530
# 239878
#
# Disc length: 3546 seconds
#
#
# Revision: 1
# Processed by: cddbd v1.4PL0 Copyright (c) Steve Scherf et al.
# Submitted via: FreeRIP 2.52 
#
DISCID=b00dd80c
DTITLE=Paulo FG - Te deseo suerte
DYEAR=2003
DGENRE=Salsa
TTITLE0=Me gusta tanto
TTITLE1=Fue un error
TTITLE2=El tumbao de Lola
TTITLE3=Te deseo suerte
TTITLE4=Preguntele a ella
TTITLE5=Hay algo en ti
TTITLE6=Hace tiempo
TTITLE7=Esa amiga
TTITLE8=Que mania
TTITLE9=Jura
TTITLE10=Te deseo suerte (salsa)
TTITLE11=El mas buscado
EXTD=YEAR: 2003
EXTT0=
EXTT1=
EXTT2=
EXTT3=
EXTT4=
EXTT5=
EXTT6=
EXTT7=
EXTT8=
EXTT9=
EXTT10=
EXTT11=
PLAYORDER=
